<svg width="292" height="73" viewBox="0 0 292 73" fill="none" xmlns="http://www.w3.org/2000/svg">
  <path d="M3 20.5363V1.10981H15.4653V4.49617H6.98044V9.12514H14.638V12.5115H6.98044V20.5363H3Z" fill="black"/>
  <path d="M26.2391 14.3327V5.96644H30.1552V20.5363H26.3954V17.8898H26.2483C25.9297 18.7435 25.3995 19.4296 24.658 19.9482C23.9226 20.4667 23.0248 20.726 21.9645 20.726C21.0208 20.726 20.1903 20.5047 19.4733 20.062C18.7563 19.6194 18.1955 18.9901 17.791 18.1744C17.3927 17.3586 17.1905 16.3816 17.1843 15.2433V5.96644H21.1004V14.5224C21.1065 15.3825 21.3302 16.0623 21.7715 16.5618C22.2127 17.0614 22.8041 17.3112 23.5457 17.3112C24.0176 17.3112 24.4588 17.2005 24.8694 16.9792C25.28 16.7515 25.611 16.4164 25.8622 15.9737C26.1196 15.5311 26.2453 14.9841 26.2391 14.3327Z" fill="black"/>
  <path d="M37.2037 12.1131V20.5363H33.2876V5.96644H37.0199V8.53703H37.1853C37.4979 7.68965 38.0219 7.01934 38.7573 6.52608C39.4927 6.02651 40.3844 5.77672 41.4324 5.77672C42.4129 5.77672 43.2678 5.99805 43.9971 6.44072C44.7264 6.88338 45.2933 7.51575 45.6978 8.33783C46.1023 9.15359 46.3045 10.1274 46.3045 11.2594V20.5363H42.3884V11.9803C42.3945 11.0887 42.1739 10.393 41.7265 9.89347C41.2792 9.38757 40.6632 9.13462 39.8788 9.13462C39.3518 9.13462 38.886 9.25161 38.4815 9.48559C38.0832 9.71957 37.7706 10.061 37.5439 10.51C37.3232 10.9527 37.2099 11.487 37.2037 12.1131Z" fill="black"/>
  <path d="M55.7707 20.8209C54.3244 20.8209 53.0803 20.5047 52.0384 19.8723C51.0027 19.2336 50.206 18.3483 49.6483 17.2163C49.0968 16.0844 48.821 14.7817 48.821 13.3083C48.821 11.8159 49.0998 10.5069 49.6575 9.38125C50.2214 8.2493 51.0211 7.36714 52.0568 6.73477C53.0925 6.09607 54.3244 5.77672 55.7523 5.77672C56.9841 5.77672 58.0627 6.00754 58.9881 6.46917C59.9135 6.9308 60.6459 7.57899 61.1852 8.41372C61.7245 9.24845 62.0217 10.2286 62.0769 11.3542H58.3814C58.2772 10.627 58.0014 10.0421 57.5541 9.59942C57.1128 9.15043 56.5337 8.92594 55.8166 8.92594C55.2099 8.92594 54.6798 9.09668 54.2263 9.43816C53.7789 9.77332 53.4296 10.2634 53.1783 10.9084C52.9271 11.5534 52.8014 12.3344 52.8014 13.2514C52.8014 14.181 52.924 14.9714 53.1691 15.6228C53.4204 16.2741 53.7728 16.7705 54.2263 17.112C54.6798 17.4535 55.2099 17.6242 55.8166 17.6242C56.264 17.6242 56.6654 17.5294 57.0209 17.3397C57.3825 17.1499 57.6797 16.8749 57.9126 16.5144C58.1516 16.1476 58.3079 15.7081 58.3814 15.1959H62.0769C62.0156 16.3089 61.7214 17.2891 61.1944 18.1364C60.6735 18.9775 59.9534 19.6352 59.0341 20.1094C58.1148 20.5837 57.027 20.8209 55.7707 20.8209Z" fill="black"/>
  <path d="M72.0946 5.96644V9.00182H63.5914V5.96644H72.0946ZM65.5218 2.47574H69.4379V16.0591C69.4379 16.4322 69.4931 16.7231 69.6034 16.9318C69.7137 17.1341 69.8669 17.2764 70.063 17.3586C70.2653 17.4408 70.4981 17.4819 70.7617 17.4819C70.9455 17.4819 71.1294 17.4661 71.3132 17.4345C71.4971 17.3966 71.638 17.3681 71.7361 17.3491L72.352 20.3561C72.1559 20.4193 71.8801 20.492 71.5247 20.5742C71.1692 20.6628 70.7372 20.7165 70.2285 20.7355C69.2847 20.7734 68.4574 20.6438 67.7465 20.3466C67.0417 20.0494 66.4932 19.5877 66.101 18.9617C65.7087 18.3356 65.5157 17.5452 65.5218 16.5903V2.47574Z" fill="black"/>
  <path d="M74.6456 20.5363V5.96644H78.5617V20.5363H74.6456ZM76.6128 4.08829C76.0306 4.08829 75.5311 3.88909 75.1144 3.4907C74.7038 3.08598 74.4985 2.60221 74.4985 2.0394C74.4985 1.48291 74.7038 1.00547 75.1144 0.607079C75.5311 0.20236 76.0306 0 76.6128 0C77.195 0 77.6914 0.20236 78.102 0.607079C78.5188 1.00547 78.7271 1.48291 78.7271 2.0394C78.7271 2.60221 78.5188 3.08598 78.102 3.4907C77.6914 3.88909 77.195 4.08829 76.6128 4.08829Z" fill="black"/>
  <path d="M88.0784 20.8209C86.6505 20.8209 85.4156 20.5078 84.3738 19.8818C83.338 19.2494 82.5383 18.3704 81.9745 17.2448C81.4106 16.1129 81.1287 14.8007 81.1287 13.3083C81.1287 11.8032 81.4106 10.4879 81.9745 9.36228C82.5383 8.23033 83.338 7.35133 84.3738 6.72528C85.4156 6.09291 86.6505 5.77672 88.0784 5.77672C89.5063 5.77672 90.7382 6.09291 91.7739 6.72528C92.8157 7.35133 93.6185 8.23033 94.1824 9.36228C94.7462 10.4879 95.0281 11.8032 95.0281 13.3083C95.0281 14.8007 94.7462 16.1129 94.1824 17.2448C93.6185 18.3704 92.8157 19.2494 91.7739 19.8818C90.7382 20.5078 89.5063 20.8209 88.0784 20.8209ZM88.0968 17.6906C88.7464 17.6906 89.2888 17.5009 89.7239 17.1215C90.159 16.7357 90.4869 16.2109 90.7075 15.5469C90.9343 14.8829 91.0477 14.1272 91.0477 13.2798C91.0477 12.4324 90.9343 11.6768 90.7075 11.0128C90.4869 10.3488 90.159 9.82391 89.7239 9.43816C89.2888 9.05241 88.7464 8.85954 88.0968 8.85954C87.4411 8.85954 86.8895 9.05241 86.4421 9.43816C86.0009 9.82391 85.6669 10.3488 85.4401 11.0128C85.2195 11.6768 85.1092 12.4324 85.1092 13.2798C85.1092 14.1272 85.2195 14.8829 85.4401 15.5469C85.6669 16.2109 86.0009 16.7357 86.4421 17.1215C86.8895 17.5009 87.4411 17.6906 88.0968 17.6906Z" fill="black"/>
  <path d="M101.491 12.1131V20.5363H97.5745V5.96644H101.307V8.53703H101.472C101.785 7.68965 102.309 7.01934 103.044 6.52608C103.78 6.02651 104.671 5.77672 105.719 5.77672C106.7 5.77672 107.555 5.99805 108.284 6.44072C109.013 6.88338 109.58 7.51575 109.985 8.33783C110.389 9.15359 110.591 10.1274 110.591 11.2594V20.5363H106.675V11.9803C106.681 11.0887 106.461 10.393 106.013 9.89347C105.566 9.38757 104.95 9.13462 104.166 9.13462C103.639 9.13462 103.173 9.25161 102.768 9.48559C102.37 9.71957 102.057 10.061 101.831 10.51C101.61 10.9527 101.497 11.487 101.491 12.1131Z" fill="black"/>
  <path d="M122.988 20.5363H118.722L125.222 1.10981H130.351L136.841 20.5363H132.576L127.86 5.54907H127.713L122.988 20.5363ZM122.721 12.9004H132.796V16.1065H122.721V12.9004Z" fill="black"/>
  <path d="M139.034 26V5.96644H142.894V8.41372H143.069C143.241 8.02165 143.489 7.62325 143.814 7.21853C144.145 6.80749 144.574 6.46601 145.101 6.19409C145.634 5.91585 146.296 5.77672 147.086 5.77672C148.116 5.77672 149.066 6.05497 149.936 6.61146C150.806 7.16162 151.502 7.99319 152.023 9.10617C152.544 10.2128 152.804 11.6009 152.804 13.2703C152.804 14.8955 152.55 16.2678 152.041 17.3871C151.539 18.5001 150.852 19.3443 149.982 19.9197C149.118 20.4889 148.15 20.7734 147.077 20.7734C146.317 20.7734 145.671 20.6438 145.137 20.3845C144.61 20.1253 144.178 19.7996 143.841 19.4075C143.504 19.0091 143.247 18.6076 143.069 18.2028H142.95V26H139.034ZM142.867 13.2514C142.867 14.1177 142.983 14.8734 143.216 15.5184C143.449 16.1634 143.786 16.6662 144.227 17.0266C144.669 17.3808 145.205 17.5578 145.836 17.5578C146.473 17.5578 147.013 17.3776 147.454 17.0171C147.895 16.6504 148.229 16.1445 148.456 15.4995C148.689 14.8481 148.805 14.0987 148.805 13.2514C148.805 12.4103 148.692 11.6704 148.465 11.0317C148.238 10.393 147.904 9.89347 147.463 9.53302C147.022 9.17256 146.48 8.99234 145.836 8.99234C145.199 8.99234 144.659 9.16624 144.218 9.51405C143.783 9.86185 143.449 10.3551 143.216 10.9938C142.983 11.6325 142.867 12.385 142.867 13.2514Z" fill="black"/>
  <path d="M155.415 26V5.96644H159.276V8.41372H159.451C159.622 8.02165 159.87 7.62325 160.195 7.21853C160.526 6.80749 160.955 6.46601 161.482 6.19409C162.015 5.91585 162.677 5.77672 163.468 5.77672C164.497 5.77672 165.447 6.05497 166.317 6.61146C167.188 7.16162 167.883 7.99319 168.404 9.10617C168.925 10.2128 169.186 11.6009 169.186 13.2703C169.186 14.8955 168.931 16.2678 168.423 17.3871C167.92 18.5001 167.234 19.3443 166.363 19.9197C165.499 20.4889 164.531 20.7734 163.459 20.7734C162.699 20.7734 162.052 20.6438 161.519 20.3845C160.992 20.1253 160.56 19.7996 160.223 19.4075C159.886 19.0091 159.628 18.6076 159.451 18.2028H159.331V26H155.415ZM159.248 13.2514C159.248 14.1177 159.365 14.8734 159.598 15.5184C159.83 16.1634 160.168 16.6662 160.609 17.0266C161.05 17.3808 161.586 17.5578 162.218 17.5578C162.855 17.5578 163.394 17.3776 163.835 17.0171C164.277 16.6504 164.611 16.1445 164.837 15.4995C165.07 14.8481 165.187 14.0987 165.187 13.2514C165.187 12.4103 165.073 11.6704 164.847 11.0317C164.62 10.393 164.286 9.89347 163.845 9.53302C163.403 9.17256 162.861 8.99234 162.218 8.99234C161.58 8.99234 161.041 9.16624 160.6 9.51405C160.164 9.86185 159.83 10.3551 159.598 10.9938C159.365 11.6325 159.248 12.385 159.248 13.2514Z" fill="black"/>
  <path d="M171.796 20.5363V5.96644H175.593V8.50857H175.74C175.997 7.60428 176.429 6.92132 177.036 6.45969C177.643 5.99173 178.342 5.75775 179.132 5.75775C179.328 5.75775 179.54 5.7704 179.766 5.79569C179.993 5.82099 180.192 5.85577 180.364 5.90004V9.48559C180.18 9.42868 179.926 9.37808 179.601 9.33382C179.276 9.28955 178.979 9.26742 178.709 9.26742C178.133 9.26742 177.618 9.39706 177.165 9.65633C176.717 9.90928 176.362 10.2634 176.098 10.7187C175.841 11.174 175.712 11.6989 175.712 12.2933V20.5363H171.796Z" fill="black"/>
  <path d="M188.111 20.8209C186.683 20.8209 185.448 20.5078 184.406 19.8818C183.371 19.2494 182.571 18.3704 182.007 17.2448C181.443 16.1129 181.161 14.8007 181.161 13.3083C181.161 11.8032 181.443 10.4879 182.007 9.36228C182.571 8.23033 183.371 7.35133 184.406 6.72528C185.448 6.09291 186.683 5.77672 188.111 5.77672C189.539 5.77672 190.771 6.09291 191.807 6.72528C192.848 7.35133 193.651 8.23033 194.215 9.36228C194.779 10.4879 195.061 11.8032 195.061 13.3083C195.061 14.8007 194.779 16.1129 194.215 17.2448C193.651 18.3704 192.848 19.2494 191.807 19.8818C190.771 20.5078 189.539 20.8209 188.111 20.8209ZM188.129 17.6906C188.779 17.6906 189.321 17.5009 189.757 17.1215C190.192 16.7357 190.52 16.2109 190.74 15.5469C190.967 14.8829 191.08 14.1272 191.08 13.2798C191.08 12.4324 190.967 11.6768 190.74 11.0128C190.52 10.3488 190.192 9.82391 189.757 9.43816C189.321 9.05241 188.779 8.85954 188.129 8.85954C187.474 8.85954 186.922 9.05241 186.475 9.43816C186.033 9.82391 185.7 10.3488 185.473 11.0128C185.252 11.6768 185.142 12.4324 185.142 13.2798C185.142 14.1272 185.252 14.8829 185.473 15.5469C185.7 16.2109 186.033 16.7357 186.475 17.1215C186.922 17.5009 187.474 17.6906 188.129 17.6906Z" fill="black"/>
  <path d="M200.374 5.96644L202.966 11.0602L205.623 5.96644H209.64L205.55 13.2514L209.751 20.5363H205.752L202.966 15.4995L200.227 20.5363H196.182L200.374 13.2514L196.329 5.96644H200.374Z" fill="black"/>
  <path d="M211.966 20.5363V5.96644H215.882V20.5363H211.966ZM213.933 4.08829C213.351 4.08829 212.852 3.88909 212.435 3.4907C212.024 3.08598 211.819 2.60221 211.819 2.0394C211.819 1.48291 212.024 1.00547 212.435 0.607079C212.852 0.20236 213.351 0 213.933 0C214.516 0 215.012 0.20236 215.423 0.607079C215.839 1.00547 216.048 1.48291 216.048 2.0394C216.048 2.60221 215.839 3.08598 215.423 3.4907C215.012 3.88909 214.516 4.08829 213.933 4.08829Z" fill="black"/>
  <path d="M219.019 20.5363V5.96644H222.751V8.53703H222.917C223.211 7.68333 223.701 7.00985 224.388 6.5166C225.074 6.02335 225.895 5.77672 226.851 5.77672C227.82 5.77672 228.644 6.02651 229.324 6.52608C230.004 7.01934 230.458 7.68965 230.685 8.53703H230.832C231.12 7.7023 231.641 7.03515 232.395 6.53557C233.154 6.02967 234.052 5.77672 235.088 5.77672C236.406 5.77672 237.475 6.2099 238.296 7.07625C239.124 7.93628 239.537 9.15676 239.537 10.7377V20.5363H235.63V11.5345C235.63 10.725 235.422 10.118 235.005 9.71324C234.589 9.30853 234.068 9.10617 233.443 9.10617C232.732 9.10617 232.177 9.34014 231.779 9.8081C231.38 10.2697 231.181 10.88 231.181 11.6388V20.5363H227.385V11.4491C227.385 10.7345 227.185 10.1654 226.787 9.7417C226.395 9.31801 225.877 9.10617 225.233 9.10617C224.798 9.10617 224.406 9.21999 224.057 9.44765C223.714 9.66898 223.441 9.982 223.239 10.3867C223.036 10.7851 222.935 11.2531 222.935 11.7906V20.5363H219.019Z" fill="black"/>
  <path d="M246.657 20.8114C245.756 20.8114 244.953 20.6501 244.249 20.3276C243.544 19.9988 242.986 19.515 242.575 18.8763C242.171 18.2313 241.969 17.4282 241.969 16.467C241.969 15.6575 242.113 14.9777 242.401 14.4276C242.689 13.8774 243.081 13.4348 243.577 13.0996C244.074 12.7644 244.638 12.5115 245.269 12.3408C245.906 12.17 246.574 12.0499 247.273 11.9803C248.094 11.8918 248.756 11.8096 249.259 11.7337C249.761 11.6515 250.126 11.5313 250.352 11.3732C250.579 11.2151 250.693 10.9811 250.693 10.6713V10.6144C250.693 10.0136 250.509 9.54883 250.141 9.21999C249.779 8.89116 249.265 8.72674 248.597 8.72674C247.892 8.72674 247.331 8.888 246.914 9.21051C246.498 9.52669 246.222 9.92509 246.087 10.4057L242.465 10.1022C242.649 9.21683 243.011 8.45166 243.55 7.80664C244.089 7.1553 244.785 6.65572 245.637 6.30792C246.495 5.95379 247.487 5.77672 248.615 5.77672C249.4 5.77672 250.15 5.87158 250.867 6.06129C251.59 6.251 252.231 6.54506 252.789 6.94345C253.352 7.34185 253.797 7.85407 254.121 8.48012C254.446 9.09984 254.609 9.84288 254.609 10.7092V20.5363H250.895V18.5159H250.785C250.558 18.9712 250.254 19.3727 249.874 19.7205C249.494 20.062 249.038 20.3308 248.505 20.5268C247.972 20.7165 247.356 20.8114 246.657 20.8114ZM247.779 18.0226C248.355 18.0226 248.863 17.9056 249.305 17.6717C249.746 17.4314 250.092 17.1088 250.343 16.7041C250.595 16.2994 250.72 15.8409 250.72 15.3287V13.7826C250.598 13.8648 250.429 13.9407 250.215 14.0102C250.006 14.0735 249.77 14.1335 249.507 14.1904C249.243 14.241 248.98 14.2885 248.716 14.3327C248.453 14.3707 248.214 14.4054 247.999 14.4371C247.54 14.5066 247.138 14.6173 246.795 14.7691C246.452 14.9208 246.185 15.1264 245.995 15.3856C245.805 15.6386 245.71 15.9548 245.71 16.3342C245.71 16.8843 245.903 17.3049 246.289 17.5958C246.682 17.8803 247.178 18.0226 247.779 18.0226Z" fill="black"/>
  <path d="M265.157 5.96644V9.00182H256.654V5.96644H265.157ZM258.585 2.47574H262.501V16.0591C262.501 16.4322 262.556 16.7231 262.666 16.9318C262.776 17.1341 262.93 17.2764 263.126 17.3586C263.328 17.4408 263.561 17.4819 263.824 17.4819C264.008 17.4819 264.192 17.4661 264.376 17.4345C264.56 17.3966 264.701 17.3681 264.799 17.3491L265.415 20.3561C265.219 20.4193 264.943 20.492 264.587 20.5742C264.232 20.6628 263.8 20.7165 263.291 20.7355C262.347 20.7734 261.52 20.6438 260.809 20.3466C260.104 20.0494 259.556 19.5877 259.164 18.9617C258.771 18.3356 258.578 17.5452 258.585 16.5903V2.47574Z" fill="black"/>
  <path d="M273.936 20.8209C272.508 20.8209 271.274 20.5078 270.232 19.8818C269.196 19.2494 268.396 18.3704 267.832 17.2448C267.269 16.1129 266.987 14.8007 266.987 13.3083C266.987 11.8032 267.269 10.4879 267.832 9.36228C268.396 8.23033 269.196 7.35133 270.232 6.72528C271.274 6.09291 272.508 5.77672 273.936 5.77672C275.364 5.77672 276.596 6.09291 277.632 6.72528C278.674 7.35133 279.477 8.23033 280.04 9.36228C280.604 10.4879 280.886 11.8032 280.886 13.3083C280.886 14.8007 280.604 16.1129 280.04 17.2448C279.477 18.3704 278.674 19.2494 277.632 19.8818C276.596 20.5078 275.364 20.8209 273.936 20.8209ZM273.955 17.6906C274.604 17.6906 275.147 17.5009 275.582 17.1215C276.017 16.7357 276.345 16.2109 276.565 15.5469C276.792 14.8829 276.906 14.1272 276.906 13.2798C276.906 12.4324 276.792 11.6768 276.565 11.0128C276.345 10.3488 276.017 9.82391 275.582 9.43816C275.147 9.05241 274.604 8.85954 273.955 8.85954C273.299 8.85954 272.747 9.05241 272.3 9.43816C271.859 9.82391 271.525 10.3488 271.298 11.0128C271.077 11.6768 270.967 12.4324 270.967 13.2798C270.967 14.1272 271.077 14.8829 271.298 15.5469C271.525 16.2109 271.859 16.7357 272.3 17.1215C272.747 17.5009 273.299 17.6906 273.955 17.6906Z" fill="black"/>
  <path d="M283.432 20.5363V5.96644H287.229V8.50857H287.376C287.633 7.60428 288.066 6.92132 288.672 6.45969C289.279 5.99173 289.978 5.75775 290.768 5.75775C290.964 5.75775 291.176 5.7704 291.402 5.79569C291.629 5.82099 291.828 5.85577 292 5.90004V9.48559C291.816 9.42868 291.562 9.37808 291.237 9.33382C290.912 9.28955 290.615 9.26742 290.345 9.26742C289.769 9.26742 289.254 9.39706 288.801 9.65633C288.354 9.90928 287.998 10.2634 287.735 10.7187C287.477 11.174 287.349 11.6989 287.349 12.2933V20.5363H283.432Z" fill="black"/>
  <path d="M165 41.7433V30.164H166.025V34.7154H166.116C166.231 34.4553 166.395 34.1877 166.609 33.9126C166.826 33.6374 167.11 33.4075 167.461 33.2228C167.816 33.0343 168.263 32.9401 168.801 32.9401C169.522 32.9401 170.156 33.1285 170.701 33.5055C171.247 33.8786 171.673 34.4026 171.978 35.0773C172.283 35.7482 172.436 36.5303 172.436 37.4237C172.436 38.3208 172.283 39.1067 171.978 39.7814C171.676 40.4561 171.253 40.9819 170.707 41.3588C170.165 41.7358 169.535 41.9242 168.818 41.9242C168.284 41.9242 167.837 41.83 167.479 41.6415C167.124 41.4531 166.837 41.2213 166.62 40.9461C166.402 40.6672 166.235 40.3958 166.116 40.1319H165.99V41.7433H165ZM166.007 37.4067C166.007 38.1078 166.112 38.7297 166.322 39.2725C166.536 39.8115 166.841 40.2356 167.238 40.5447C167.639 40.85 168.124 41.0026 168.692 41.0026C169.276 41.0026 169.77 40.8443 170.175 40.5277C170.579 40.2073 170.886 39.7757 171.096 39.2329C171.306 38.6902 171.411 38.0814 171.411 37.4067C171.411 36.7395 171.306 36.1383 171.096 35.6031C170.89 35.0678 170.585 34.6438 170.18 34.3309C169.776 34.0143 169.28 33.856 168.692 33.856C168.12 33.856 167.633 34.0087 167.232 34.314C166.836 34.6155 166.532 35.0339 166.322 35.5692C166.112 36.1006 166.007 36.7132 166.007 37.4067Z" fill="black"/>
  <path d="M175.069 45C174.867 45 174.678 44.9812 174.502 44.9435C174.327 44.9058 174.187 44.8643 174.084 44.8191L174.359 43.9314C174.706 44.0369 175.015 44.0746 175.286 44.0445C175.557 44.0181 175.798 43.8975 176.008 43.6826C176.218 43.4715 176.405 43.1474 176.569 42.7101L176.889 41.8281L173.655 33.0588H174.76L177.37 40.4146H177.45L180.06 33.0588H181.165L177.444 43.1172C177.288 43.5356 177.095 43.8843 176.866 44.1632C176.637 44.4459 176.372 44.6551 176.071 44.7908C175.773 44.9303 175.439 45 175.069 45Z" fill="black"/>
  <path d="M197.034 30.164V41.7433H195.992L189.066 32.0467H188.974V41.7433H187.904V30.164H188.94L195.889 39.8718H195.981V30.164H197.034Z" fill="black"/>
  <path d="M199.951 41.7433V33.0588H200.975V41.7433H199.951ZM200.472 31.5662C200.262 31.5662 200.082 31.4964 199.933 31.357C199.785 31.2137 199.71 31.0422 199.71 30.8424C199.71 30.6427 199.785 30.473 199.933 30.3336C200.082 30.1904 200.262 30.1187 200.472 30.1187C200.681 30.1187 200.861 30.1904 201.01 30.3336C201.158 30.473 201.233 30.6427 201.233 30.8424C201.233 31.0422 201.158 31.2137 201.01 31.357C200.861 31.4964 200.681 31.5662 200.472 31.5662Z" fill="black"/>
  <path d="M204.689 30.164V41.7433H203.67V30.164H204.689Z" fill="black"/>
  <path d="M213.292 34.9642L212.359 35.2243C212.268 34.9642 212.138 34.7286 211.97 34.5175C211.802 34.3064 211.583 34.1387 211.312 34.0143C211.045 33.8899 210.713 33.8277 210.316 33.8277C209.72 33.8277 209.232 33.9672 208.85 34.2461C208.469 34.5251 208.278 34.885 208.278 35.326C208.278 35.6992 208.408 36.0026 208.667 36.2363C208.93 36.4663 209.335 36.6491 209.881 36.7848L211.209 37.107C211.945 37.2842 212.497 37.565 212.863 37.9495C213.233 38.334 213.418 38.8164 213.418 39.3969C213.418 39.8869 213.281 40.3223 213.006 40.703C212.731 41.0837 212.348 41.3833 211.856 41.602C211.367 41.8168 210.8 41.9242 210.155 41.9242C209.297 41.9242 208.589 41.7339 208.032 41.3532C207.475 40.9687 207.118 40.4146 206.961 39.6909L207.94 39.4534C208.066 39.9698 208.312 40.36 208.679 40.6238C209.049 40.8877 209.535 41.0196 210.138 41.0196C210.814 41.0196 211.354 40.8707 211.758 40.5729C212.163 40.2714 212.365 39.8945 212.365 39.4421C212.365 39.0916 212.247 38.7976 212.01 38.5601C211.774 38.3189 211.415 38.1417 210.934 38.0286L209.497 37.6894C208.734 37.5085 208.169 37.222 207.803 36.83C207.436 36.438 207.253 35.9518 207.253 35.3713C207.253 34.8926 207.385 34.4723 207.648 34.1104C207.912 33.7448 208.274 33.4583 208.736 33.251C209.198 33.0437 209.724 32.9401 210.316 32.9401C211.121 32.9401 211.764 33.121 212.245 33.4828C212.729 33.8409 213.079 34.3347 213.292 34.9642Z" fill="black"/>
  <path d="M226.76 33.0588C226.695 32.4142 226.407 31.9016 225.896 31.5209C225.384 31.1402 224.741 30.9499 223.967 30.9499C223.421 30.9499 222.94 31.0422 222.524 31.2269C222.112 31.4116 221.788 31.6679 221.551 31.9959C221.318 32.32 221.202 32.6894 221.202 33.104C221.202 33.4093 221.269 33.677 221.402 33.9069C221.536 34.1368 221.715 34.3347 221.94 34.5006C222.169 34.6626 222.421 34.8021 222.696 34.919C222.974 35.0358 223.255 35.1338 223.537 35.213L224.774 35.5635C225.148 35.6653 225.522 35.7953 225.896 35.9536C226.27 36.1119 226.611 36.3117 226.92 36.553C227.233 36.7904 227.483 37.0825 227.67 37.4293C227.861 37.7723 227.956 38.1851 227.956 38.6675C227.956 39.2857 227.794 39.8417 227.47 40.3355C227.145 40.8293 226.68 41.2213 226.073 41.5115C225.466 41.798 224.739 41.9412 223.892 41.9412C223.095 41.9412 222.402 41.8112 221.814 41.5511C221.227 41.2872 220.765 40.9235 220.429 40.4599C220.093 39.9962 219.904 39.4591 219.862 38.8485H220.961C221 39.3046 221.152 39.6909 221.419 40.0075C221.686 40.3242 222.034 40.5654 222.461 40.7312C222.889 40.8933 223.366 40.9744 223.892 40.9744C224.476 40.9744 224.995 40.8783 225.449 40.686C225.907 40.49 226.266 40.2186 226.525 39.8718C226.789 39.5213 226.92 39.1142 226.92 38.6506C226.92 38.2586 226.817 37.9306 226.611 37.6668C226.405 37.3992 226.117 37.1749 225.747 36.994C225.38 36.813 224.955 36.6528 224.47 36.5134L223.068 36.1063C222.148 35.8349 221.435 35.4599 220.927 34.9812C220.419 34.5024 220.166 33.8918 220.166 33.1493C220.166 32.5273 220.334 31.9808 220.669 31.5096C221.009 31.0347 221.467 30.6653 222.043 30.4014C222.623 30.1338 223.274 30 223.995 30C224.724 30 225.369 30.1319 225.93 30.3958C226.491 30.6596 226.936 31.0234 227.264 31.487C227.596 31.9469 227.773 32.4708 227.796 33.0588H226.76Z" fill="black"/>
  <path d="M233.755 41.9242C232.969 41.9242 232.284 41.7301 231.7 41.3419C231.12 40.9536 230.67 40.4222 230.349 39.7475C230.029 39.0727 229.868 38.3038 229.868 37.4406C229.868 36.5699 230.03 35.7953 230.355 35.1168C230.683 34.4384 231.137 33.9069 231.717 33.5224C232.297 33.1342 232.971 32.9401 233.738 32.9401C234.325 32.9401 234.858 33.0531 235.335 33.2793C235.812 33.5017 236.205 33.8164 236.514 34.2235C236.827 34.6268 237.024 35.098 237.104 35.637H236.073C235.966 35.147 235.709 34.7286 235.301 34.3818C234.896 34.0313 234.381 33.856 233.755 33.856C233.194 33.856 232.698 34.0068 232.267 34.3083C231.835 34.6061 231.498 35.0226 231.254 35.5579C231.013 36.0893 230.893 36.7056 230.893 37.4067C230.893 38.1116 231.011 38.7354 231.248 39.2782C231.484 39.8172 231.816 40.2394 232.244 40.5447C232.675 40.85 233.179 41.0026 233.755 41.0026C234.144 41.0026 234.499 40.931 234.82 40.7878C235.144 40.6408 235.415 40.4335 235.633 40.1658C235.854 39.8982 236.003 39.5797 236.079 39.2103H237.109C237.033 39.7343 236.844 40.2017 236.543 40.6125C236.245 41.0196 235.858 41.34 235.381 41.5737C234.907 41.8074 234.366 41.9242 233.755 41.9242Z" fill="black"/>
  <path d="M240.312 36.3155V41.7433H239.293V30.164H240.312V34.4214H240.404C240.61 33.9729 240.928 33.6148 241.36 33.3472C241.795 33.0795 242.344 32.9457 243.008 32.9457C243.604 32.9457 244.126 33.0663 244.577 33.3076C245.027 33.5488 245.378 33.905 245.63 34.3762C245.882 34.8473 246.008 35.4278 246.008 36.1176V41.7433H244.983V36.1798C244.983 35.4636 244.781 34.9001 244.376 34.4893C243.976 34.0746 243.434 33.8673 242.751 33.8673C242.281 33.8673 241.863 33.9653 241.497 34.1613C241.131 34.3573 240.841 34.64 240.627 35.0094C240.417 35.375 240.312 35.8104 240.312 36.3155Z" fill="black"/>
  <path d="M250.643 41.7433L247.987 33.0588H249.063L251.147 40.2224H251.221L253.299 33.0588H254.381L256.441 40.2054H256.522L258.605 33.0588H259.681L257.025 41.7433H255.972L253.888 34.625H253.78L251.696 41.7433H250.643Z" fill="black"/>
  <path d="M264.918 41.9242C264.097 41.9242 263.387 41.7358 262.788 41.3588C262.189 40.9781 261.725 40.4523 261.397 39.7814C261.073 39.1067 260.911 38.3302 260.911 37.4519C260.911 36.5775 261.073 35.801 261.397 35.1225C261.725 34.4403 262.178 33.9069 262.754 33.5224C263.334 33.1342 264.004 32.9401 264.763 32.9401C265.24 32.9401 265.7 33.0268 266.143 33.2002C266.585 33.3698 266.982 33.6317 267.333 33.9861C267.688 34.3366 267.969 34.7795 268.175 35.3147C268.381 35.8462 268.484 36.4757 268.484 37.2032V37.7007H261.615V36.813H267.442C267.442 36.2552 267.328 35.7539 267.099 35.3091C266.873 34.8605 266.559 34.5062 266.154 34.2461C265.753 33.9861 265.29 33.856 264.763 33.856C264.206 33.856 263.716 34.003 263.292 34.297C262.868 34.591 262.536 34.9793 262.296 35.4617C262.059 35.9442 261.939 36.4719 261.935 37.0449V37.5763C261.935 38.2661 262.056 38.8692 262.296 39.3856C262.54 39.8982 262.886 40.2959 263.332 40.5786C263.778 40.8613 264.307 41.0026 264.918 41.0026C265.334 41.0026 265.698 40.9386 266.011 40.8104C266.328 40.6822 266.593 40.5107 266.807 40.2959C267.024 40.0773 267.188 39.8379 267.299 39.5778L268.266 39.8888C268.133 40.2544 267.913 40.5918 267.608 40.9009C267.307 41.21 266.929 41.4587 266.475 41.6472C266.024 41.8319 265.505 41.9242 264.918 41.9242Z" fill="black"/>
  <path d="M270.941 41.7433V30.164H271.966V34.7154H272.057C272.172 34.4553 272.336 34.1877 272.549 33.9126C272.767 33.6374 273.051 33.4075 273.402 33.2228C273.757 33.0343 274.204 32.9401 274.742 32.9401C275.463 32.9401 276.097 33.1285 276.642 33.5055C277.188 33.8786 277.613 34.4026 277.919 35.0773C278.224 35.7482 278.377 36.5303 278.377 37.4237C278.377 38.3208 278.224 39.1067 277.919 39.7814C277.617 40.4561 277.194 40.9819 276.648 41.3588C276.106 41.7358 275.476 41.9242 274.759 41.9242C274.225 41.9242 273.778 41.83 273.419 41.6415C273.065 41.4531 272.778 41.2213 272.561 40.9461C272.343 40.6672 272.175 40.3958 272.057 40.1319H271.931V41.7433H270.941ZM271.948 37.4067C271.948 38.1078 272.053 38.7297 272.263 39.2725C272.477 39.8115 272.782 40.2356 273.179 40.5447C273.58 40.85 274.064 41.0026 274.633 41.0026C275.217 41.0026 275.711 40.8443 276.116 40.5277C276.52 40.2073 276.827 39.7757 277.037 39.2329C277.247 38.6902 277.352 38.0814 277.352 37.4067C277.352 36.7395 277.247 36.1383 277.037 35.6031C276.831 35.0678 276.526 34.6438 276.121 34.3309C275.717 34.0143 275.221 33.856 274.633 33.856C274.061 33.856 273.574 34.0087 273.173 34.314C272.776 34.6155 272.473 35.0339 272.263 35.5692C272.053 36.1006 271.948 36.7132 271.948 37.4067Z" fill="black"/>
  <path d="M284.17 41.9242C283.349 41.9242 282.639 41.7358 282.04 41.3588C281.441 40.9781 280.977 40.4523 280.649 39.7814C280.325 39.1067 280.163 38.3302 280.163 37.4519C280.163 36.5775 280.325 35.801 280.649 35.1225C280.977 34.4403 281.43 33.9069 282.006 33.5224C282.586 33.1342 283.256 32.9401 284.015 32.9401C284.492 32.9401 284.952 33.0268 285.395 33.2002C285.837 33.3698 286.234 33.6317 286.585 33.9861C286.94 34.3366 287.221 34.7795 287.427 35.3147C287.633 35.8462 287.736 36.4757 287.736 37.2032V37.7007H280.867V36.813H286.694C286.694 36.2552 286.579 35.7539 286.35 35.3091C286.125 34.8605 285.811 34.5062 285.406 34.2461C285.005 33.9861 284.542 33.856 284.015 33.856C283.458 33.856 282.967 34.003 282.544 34.297C282.12 34.591 281.788 34.9793 281.548 35.4617C281.311 35.9442 281.191 36.4719 281.187 37.0449V37.5763C281.187 38.2661 281.307 38.8692 281.548 39.3856C281.792 39.8982 282.137 40.2959 282.584 40.5786C283.03 40.8613 283.559 41.0026 284.17 41.0026C284.586 41.0026 284.95 40.9386 285.263 40.8104C285.58 40.6822 285.845 40.5107 286.059 40.2959C286.276 40.0773 286.44 39.8379 286.551 39.5778L287.518 39.8888C287.385 40.2544 287.165 40.5918 286.86 40.9009C286.558 41.21 286.181 41.4587 285.727 41.6472C285.276 41.8319 284.757 41.9242 284.17 41.9242Z" fill="black"/>
  <path d="M291 30.164V41.7433H289.981V30.164H291Z" fill="black"/>
  <path fill-rule="evenodd" clip-rule="evenodd" d="M90.3699 40.2771C39.7578 39.9524 16.6203 55.2644 2.86576 72.3966C2.30313 73.0974 1.28658 73.2032 0.595246 72.6328C-0.0960924 72.0625 -0.200429 71.0321 0.362203 70.3313C14.8514 52.284 39.0021 36.6754 90.3904 37.0051C119.52 37.192 140.237 46.0589 159.864 54.4592C165.502 56.8724 171.05 59.247 176.682 61.3663C189.334 66.1276 202.503 69.6644 218.274 69.6847C234.051 69.7051 252.532 66.2056 275.785 56.7573C276.613 56.4211 277.552 56.8285 277.884 57.6672C278.215 58.5058 277.813 59.4582 276.986 59.7944C253.436 69.3634 234.544 72.9777 218.269 72.9567C201.989 72.9357 188.426 69.276 175.559 64.4338C169.718 62.2359 164.039 59.8075 158.322 57.3627C138.782 49.0064 118.796 40.4595 90.3699 40.2771Z" fill="#7A9CCC"/>
  </svg>
  