<svg viewBox="0 0 48 48" fill="none" xmlns="http://www.w3.org/2000/svg">
  <circle cx="24" cy="24" r="24" fill="#2D2D2D"/>
  <path d="M28 9L28 27.948L20 27.948L20 9L28 9ZM24 31.8982C25.3526 31.8982 26.512 32.2458 27.4782 32.9409C28.4444 33.6361 28.9275 35.4721 28.9275 36.4491C28.9275 37.4261 28.4444 39.2621 27.4782 39.9573C26.512 40.6524 25.3526 41 24 41C22.6352 41 21.4758 40.6524 20.5217 39.9573C19.5555 39.2621 19.0724 37.4261 19.0724 36.4491C19.0724 35.4721 19.5555 33.6361 20.5217 32.9409C21.4758 32.2458 22.6352 31.8982 24 31.8982Z" fill="white"/>
  </svg>
  